<?xml version="1.0" encoding="UTF-8"?>
<svg version="1.1" xmlns="http://www.w3.org/2000/svg" width="1024" height="1024">
<path d="M0 0 C337.92 0 675.84 0 1024 0 C1024 337.92 1024 675.84 1024 1024 C686.08 1024 348.16 1024 0 1024 C0 686.08 0 348.16 0 0 Z " fill="#FEFEFE" transform="translate(0,0)"/>
<path d="M0 0 C46.48181721 38.21773867 80.78959602 97.14464616 87.72265625 157.25390625 C88.34044229 164.0462631 88.37676853 170.85580944 88.3828125 177.671875 C88.38348724 178.35879425 88.38416199 179.0457135 88.38485718 179.75344849 C88.36837611 190.33445087 87.82921109 200.32391907 85.1328125 210.609375 C84.96652344 211.26325195 84.80023437 211.91712891 84.62890625 212.59082031 C79.8339538 231.01586909 71.38193693 247.73664473 56.1328125 259.609375 C54.9778125 260.145625 53.8228125 260.681875 52.6328125 261.234375 C49.45469509 264.25358654 49.72919495 265.50077841 49.5 269.80078125 C49.39606934 271.69521973 49.39606934 271.69521973 49.29003906 273.62792969 C49.06294413 279.37865042 48.91901533 285.12851523 48.8026123 290.88241577 C47.69473659 341.3171749 40.49936661 390.73539896 4.1328125 428.609375 C3.37613281 429.41761719 2.61945313 430.22585938 1.83984375 431.05859375 C-6.06662793 439.27461734 -14.98555603 446.86758914 -24.8671875 452.609375 C-25.1971875 452.939375 -25.5271875 453.269375 -25.8671875 453.609375 C-24.63379639 453.59890137 -23.40040527 453.58842773 -22.12963867 453.57763672 C-17.45714337 453.54083434 -12.7846602 453.51826061 -8.11206055 453.49951172 C-6.10780671 453.48958888 -4.1035668 453.47604631 -2.09936523 453.45849609 C42.91993519 453.07477681 42.91993519 453.07477681 56.1328125 465.609375 C66.81451648 476.5951123 70.48148241 489.87562398 73.71875 504.3828125 C75.22481285 511.12349735 76.9124598 517.8162812 78.60351562 524.51223755 C81.15219491 534.61040937 83.6677044 544.71481129 86.04980469 554.85375977 C87.54072368 561.17661168 89.0778277 567.48760469 90.625 573.796875 C90.84968964 574.71400772 91.07437927 575.63114044 91.30587769 576.57606506 C92.22571305 580.33005223 93.1456525 584.08400625 94.07000732 587.83688354 C94.7230681 590.48844519 95.37345222 593.1406518 96.0234375 595.79296875 C96.22113739 596.59214722 96.41883728 597.39132568 96.62252808 598.21472168 C98.77642438 607.02533409 99.3746088 615.29044669 99.4453125 624.359375 C99.47431641 625.58398438 99.50332031 626.80859375 99.53320312 628.0703125 C99.61597052 639.96335044 96.88668061 647.75033914 88.61328125 656.34765625 C77.0437047 666.89692369 63.54298838 668.06452938 48.509552 667.9835968 C46.95824533 667.9863424 45.40694053 667.99039875 43.85564029 667.99564046 C39.62271518 668.00616318 35.39000321 667.9981402 31.15708756 667.98688996 C26.58029183 667.97800887 22.00352282 667.98650278 17.42672729 667.99275208 C8.47203511 668.00221986 -0.48257624 667.99565766 -9.4372624 667.98348913 C-19.87556031 667.96983562 -30.31383919 667.97151 -40.75214376 667.97362246 C-59.38409545 667.97680949 -78.01600887 667.96516175 -96.64794922 667.94555664 C-114.70720587 667.92655924 -132.76641766 667.91946804 -150.82568359 667.92504883 C-170.51099666 667.93111415 -190.19629002 667.93091533 -209.88160145 667.919563 C-211.9829789 667.91835577 -214.08435635 667.91714978 -216.1857338 667.91594505 C-217.21952943 667.91534151 -218.25332507 667.91473798 -219.31844785 667.91411615 C-226.58566179 667.9102453 -233.85286838 667.91062741 -241.12008286 667.9125309 C-249.984128 667.91465866 -258.84813395 667.90938506 -267.71216808 667.89491735 C-272.23034775 667.88770076 -276.74847052 667.88357281 -281.26665497 667.88816071 C-285.41066736 667.89226611 -289.55456277 667.88699012 -293.69855751 667.87453463 C-295.18968699 667.87163019 -296.68082767 667.8720048 -298.17195414 667.87617771 C-314.64060063 667.91804496 -330.19678604 667.18149642 -342.8671875 655.609375 C-352.21046818 645.59717584 -354.12835717 634.05707317 -353.7109375 620.82421875 C-352.44097625 603.98650612 -347.34476503 587.40664464 -343.234375 571.08984375 C-341.47428293 564.07963468 -339.87140353 557.04014946 -338.3046875 549.984375 C-337.91156372 548.23568115 -337.91156372 548.23568115 -337.51049805 546.45166016 C-335.99090444 539.68573188 -334.49162162 532.91538366 -332.99623108 526.14407349 C-332.32113569 523.08760408 -331.64512568 520.031338 -330.96899414 516.97509766 C-330.08589898 512.98331891 -329.20666923 508.99071654 -328.32983398 504.99755859 C-321.09309725 472.15433098 -321.09309725 472.15433098 -308.8671875 462.609375 C-298.35771263 456.38776588 -289.6647507 454.48729001 -277.5625 454.29296875 C-276.48338348 454.27218765 -275.40426697 454.25140656 -274.29244995 454.22999573 C-270.85909139 454.16482387 -267.42565897 454.1057661 -263.9921875 454.046875 C-261.65884665 454.00365899 -259.32551316 453.96004373 -256.9921875 453.91601562 C-251.28393132 453.80917578 -245.57560234 453.70735033 -239.8671875 453.609375 C-240.84776123 452.94168091 -240.84776123 452.94168091 -241.84814453 452.26049805 C-248.55018307 447.64335992 -254.4599991 442.69936922 -260.33056641 437.07861328 C-261.34580062 436.10789839 -262.36624349 435.14259865 -263.39208984 434.18310547 C-290.73540081 408.58118259 -311.65942043 368.21527738 -312.94335938 330.36376953 C-312.95431641 329.6107959 -312.96527344 328.85782227 -312.9765625 328.08203125 C-313.12565307 318.03202087 -314.81386307 313.03329783 -321.8671875 305.609375 C-337.5288278 284.81139029 -350.27097588 260.93997742 -356.1171875 235.484375 C-356.36227051 234.42875366 -356.36227051 234.42875366 -356.61230469 233.35180664 C-360.85054362 213.68556468 -360.86157422 191.09391374 -355.8671875 171.609375 C-355.57714844 170.36542969 -355.28710938 169.12148438 -354.98828125 167.83984375 C-350.14456409 148.16097613 -341.70076266 128.62794914 -327.8671875 113.609375 C-327.32964844 112.99191406 -326.79210937 112.37445313 -326.23828125 111.73828125 C-318.68691956 103.54344513 -308.44103494 97.48730061 -299.05078125 91.61328125 C-294.94229376 89.02720262 -290.87355004 86.38223174 -286.8046875 83.734375 C-285.53999634 82.91211426 -285.53999634 82.91211426 -284.24975586 82.07324219 C-279.3140479 78.86148098 -274.38509075 75.63960466 -269.4609375 72.41015625 C-257.40758042 64.50697099 -245.32117745 56.6691533 -233.10742188 49.015625 C-230.07007826 47.10901 -227.04044646 45.19031015 -224.01049805 43.27197266 C-201.40452901 28.96535645 -178.77972246 14.83984755 -155.4453125 1.75 C-152.12840602 -0.11114064 -148.8233117 -1.98809876 -145.5390625 -3.90625 C-95.84324973 -32.80275805 -46.84259396 -37.56095479 0 0 Z " fill="#151515" transform="translate(602.8671875,208.390625)"/>
<path d="M0 0 C1.13574351 0.00037972 2.27148702 0.00075944 3.44164699 0.00115067 C4.74642799 -0.00084038 6.05120898 -0.00283143 7.39552879 -0.00488281 C8.8625005 -0.00202921 10.32947204 0.0009164 11.7964434 0.00394398 C13.33998197 0.00350841 14.88352047 0.00263378 16.42705858 0.00135481 C20.68899718 -0.00089302 24.95091091 0.00313505 29.21284634 0.00813287 C33.80114703 0.01243308 38.3894462 0.01099126 42.97774833 0.0102306 C50.93407155 0.00970509 58.8903866 0.01285469 66.84670776 0.01846844 C78.35035184 0.02657981 89.85399196 0.02919829 101.35763859 0.03045643 C120.01948833 0.03264752 138.6813337 0.03930916 157.34318107 0.04875904 C175.47631887 0.05793168 193.60945549 0.06501324 211.74259514 0.06926686 C212.85946876 0.06952958 213.97634238 0.0697923 215.12706066 0.07006299 C220.72983267 0.07136798 226.33260468 0.0726317 231.9353767 0.07387489 C278.44948834 0.08424929 324.96359523 0.10186915 371.47770256 0.1241985 C371.95783683 1.37318475 372.4349385 2.623337 372.91080803 3.87395436 C373.17682823 4.57000279 373.44284843 5.26605122 373.71692985 5.98319203 C374.96165104 9.4861517 375.77795524 13.06585663 376.60270256 16.6866985 C376.80299064 17.54585865 377.00327873 18.40501881 377.20963615 19.29021412 C377.97143648 22.56689328 378.72418097 25.84560542 379.47770256 29.1241985 C380.02043813 31.47295811 380.56400075 33.82152548 381.10761589 36.17008168 C382.49680928 42.17183632 383.88432381 48.17397571 385.26725334 54.17717701 C385.548274 55.39664021 385.548274 55.39664021 385.83497185 56.64073902 C386.20369031 58.24394186 386.57123991 59.84741401 386.93757194 61.45116383 C387.73154112 64.9219004 388.54226933 68.38415663 389.40055412 71.83977467 C391.02850683 78.45102837 391.99941327 84.62496257 391.97770256 91.4366985 C392.00606193 92.26492115 392.03442131 93.09314381 392.06364006 93.94646412 C392.08336299 100.20356536 390.44778898 104.28779237 386.47770256 109.1241985 C384.52067131 110.928886 384.52067131 110.928886 382.66520256 111.9991985 C382.06063225 112.36787037 381.45606193 112.73654225 380.83317131 113.116386 C372.5539429 116.65874243 364.33544601 116.41212233 355.47385734 116.39162403 C353.94107721 116.39536358 352.40829897 116.39996632 350.87552375 116.40535468 C346.67535845 116.41756242 342.47527295 116.41732684 338.27509397 116.41496593 C333.74052627 116.4145572 329.20598396 116.42560226 324.67142814 116.43508106 C315.79174778 116.45167979 306.91209397 116.4571901 298.03239939 116.45830582 C290.8130092 116.45925682 283.59362776 116.46336972 276.37424034 116.46970707 C255.89672848 116.48731634 235.41923756 116.49654642 214.94171807 116.49504612 C213.2864884 116.49492626 213.2864884 116.49492626 211.59781975 116.49480397 C210.49298279 116.4947222 209.38814583 116.49464044 208.24982896 116.4945562 C190.3461299 116.49374337 172.44251499 116.51288109 154.53884026 116.5410807 C136.14644122 116.56982103 117.7540832 116.58362036 99.36166114 116.58189315 C89.03934608 116.58122965 78.71711925 116.58670443 68.39482445 116.60824925 C59.6059942 116.62647614 50.81729216 116.63079597 42.02845117 116.6172304 C37.54692949 116.61070841 33.06565367 116.61055571 28.5841555 116.6279369 C24.47575773 116.64370674 20.36779997 116.64076439 16.25941268 116.62336864 C14.77896159 116.62030732 13.29847734 116.6238982 11.81806538 116.63508879 C1.22235272 116.70983175 -9.55357166 116.23391431 -17.64729744 108.6241985 C-23.46063675 102.26133956 -23.01479021 95.60261993 -22.85188729 87.39275318 C-22.47698573 79.09998414 -20.42243494 71.24767562 -18.33479744 63.2491985 C-17.91496841 61.57200975 -17.49734797 59.89426671 -17.08186775 58.21599537 C-16.27212315 54.95633656 -15.45197787 51.69965464 -14.62044197 48.44548756 C-13.2783818 43.1856182 -12.01625672 37.90802385 -10.77229744 32.6241985 C-10.58481941 31.84093189 -10.39734139 31.05766529 -10.20418221 30.25066334 C-9.15126346 25.84603786 -8.13728918 21.4340366 -7.14729744 17.0148235 C-6.80263436 15.47858326 -6.80263436 15.47858326 -6.45100838 13.91130787 C-6.00802152 11.92902134 -5.56841225 9.94597612 -5.132649 7.96208912 C-4.93638924 7.08230397 -4.74012947 6.20251881 -4.53792244 5.2960735 C-4.27930428 4.12189869 -4.27930428 4.12189869 -4.0154615 2.92400318 C-3.24971259 0.12939874 -2.98062473 0.14676664 0 0 Z " fill="#FDFDFE" transform="translate(291.5222974419594,741.8758015036583)"/>
<path d="M0 0 C10.50267239 7.97918765 18.23130707 19.17925362 20.59331703 32.29441929 C21.77452732 40.97311403 22.28500785 49.43637004 22.25537109 58.20874023 C22.25813179 59.55443532 22.26181813 60.90012877 22.26634216 62.24581909 C22.27436081 65.11028188 22.27664659 67.97466709 22.27439499 70.83913994 C22.27152293 75.38566641 22.28605607 79.93204237 22.30337524 84.47853088 C22.35003811 97.39557683 22.37433012 110.31260961 22.38085938 123.22973633 C22.38463083 130.38959307 22.40281801 137.54927607 22.43595374 144.70905834 C22.4527076 148.48098791 22.46208988 152.2526018 22.45301437 156.02456474 C22.41296874 174.19782615 22.42537593 191.18017183 30.75 207.8125 C31.09289062 208.51697266 31.43578125 209.22144531 31.7890625 209.94726562 C34.88937622 216.13092054 38.5972536 221.65995017 43 227 C43.99 228.21623047 43.99 228.21623047 45 229.45703125 C57.93170315 244.68714258 78.37869746 253.33517683 98 256 C100.61602415 256.10260609 103.20469185 256.16379249 105.8203125 256.16796875 C106.93018021 256.17296135 106.93018021 256.17296135 108.06246948 256.17805481 C109.62399682 256.18309676 111.18553484 256.18546398 112.74707031 256.18530273 C115.09719366 256.18747431 117.44683541 256.20561766 119.796875 256.22460938 C131.60030103 256.27055109 142.62665988 255.19232166 153.875 251.375 C154.63748047 251.11702637 155.39996094 250.85905273 156.18554688 250.59326172 C167.76166019 246.49520156 177.8007348 240.1365342 187 232 C187.61101562 231.47148438 188.22203125 230.94296875 188.8515625 230.3984375 C206.08898549 214.42036961 213.77524609 190.76365851 216 168 C216.01577037 165.54681373 215.99240338 163.09306018 215.9296875 160.640625 C215.62467957 141.72887842 215.62467957 141.72887842 219.96826172 136.73876953 C225.43671471 132.77098729 231.55974735 130.81397893 238 129 C239.67529907 128.35533323 241.34829843 127.70292541 243 127 C243.76648429 180.31324047 239.31632402 230.81297995 200.5 270.9375 C180.06164375 291.27373036 151.9799007 304.12558195 123.20751953 305.54980469 C122.37881411 305.59177349 121.55010868 305.63374229 120.69629097 305.67698288 C112.02454712 306.08829469 103.35987484 306.18238965 94.6796875 306.203125 C93.85779057 306.20595238 93.03589363 306.20877975 92.18909073 306.21169281 C87.85115513 306.2264894 83.51325119 306.23584495 79.17529297 306.24023438 C74.75726609 306.24573577 70.33954466 306.26985586 65.92161369 306.29820633 C62.4621601 306.31701765 59.00277811 306.32204771 55.54327774 306.32357025 C53.91615224 306.3265483 52.28902644 306.33440662 50.66195297 306.34775543 C22.03304698 306.56618332 -4.53971042 298.0730027 -27 280 C-27.52045898 279.58492187 -28.04091797 279.16984375 -28.57714844 278.7421875 C-52.03291744 259.9225441 -67.31633212 234.76373383 -76.25 206.25 C-76.48420654 205.52586914 -76.71841309 204.80173828 -76.9597168 204.05566406 C-82.61932296 185.02120517 -82.46674038 165.38080527 -82.43590808 145.72630048 C-82.43277419 142.63227186 -82.43895337 139.53828712 -82.44494683 136.44426483 C-82.45888153 129.14159681 -82.45751968 121.83904609 -82.44604492 114.53637695 C-82.43453071 107.04367273 -82.44871983 99.55132509 -82.4754414 92.05866772 C-82.49767912 85.57656095 -82.50421897 79.09456551 -82.49836498 72.61242336 C-82.49501871 68.76186375 -82.49725527 64.91153341 -82.51461601 61.06100655 C-82.53021708 57.4450014 -82.5259864 53.82952257 -82.50731087 50.21353722 C-82.5019429 48.27794924 -82.51603144 46.34233681 -82.53100586 44.40679932 C-82.4039317 29.1103371 -77.24042112 15.42191455 -66.8125 4.125 C-48.85060309 -12.68002897 -19.73966046 -14.02343943 0 0 Z " fill="#FEFEFE" transform="translate(390,357)"/>
<path d="M0 0 C1.21171875 0.42410156 2.4234375 0.84820312 3.671875 1.28515625 C23.30443763 8.43982811 39.68437926 20.9929271 54 36 C55.23363281 37.23363281 55.23363281 37.23363281 56.4921875 38.4921875 C65.91369546 47.91369546 73.58618242 57.96741345 81 69 C81.433125 69.63502441 81.86625 70.27004883 82.3125 70.92431641 C108.77164158 109.98255704 125.43094042 160.71978822 117 208 C113.55440478 224.96057957 106.17953396 242.54264963 91.515625 252.42578125 C78.11755497 260.80997725 61.34980614 260.46945266 46.23046875 257.74609375 C11.26408384 249.67042323 -17.1229616 225.33605094 -38 197 C-38.74636719 195.99839844 -39.49273438 194.99679687 -40.26171875 193.96484375 C-55.35538608 172.96378059 -66.45570105 149.67639199 -74 125 C-74.37898438 123.81148438 -74.75796875 122.62296875 -75.1484375 121.3984375 C-84.70468996 90.14302531 -85.43104306 55.83424915 -71 26 C-62.78407864 11.43927808 -51.9881511 1.2659658 -35.68359375 -3.3046875 C-23.33266395 -5.6360401 -11.7749855 -4.31480633 0 0 Z " fill="#FDFDFD" transform="translate(554,203)"/>
<path d="M0 0 C0.99 0.495 0.99 0.495 2 1 C1.55269531 1.91136719 1.10539063 2.82273438 0.64453125 3.76171875 C-3.0862583 11.64852096 -5.8793635 19.43464951 -7.875 27.9375 C-8.07762451 28.80012451 -8.28024902 29.66274902 -8.48901367 30.55151367 C-19.25600091 78.86587116 -0.48879154 133.21414778 24.91015625 173.84326172 C49.49825521 211.94237893 84.14035148 245.23353482 129 257 C125.48499331 260.88164508 121.08248709 262.50934895 116.375 264.625 C115.40006592 265.06521484 114.42513184 265.50542969 113.4206543 265.95898438 C103.20297984 270.48538088 92.73219887 274.19003964 82.18896484 277.87451172 C76.97963218 279.7130528 71.802512 281.63650826 66.625 283.5625 C65.53501709 283.96702393 64.44503418 284.37154785 63.32202148 284.78833008 C57.1324429 287.08709398 50.94547322 289.39283661 44.7588501 291.69953918 C26.06262445 298.67020758 7.36160094 305.62679115 -11.37371826 312.49185181 C-13.20272394 313.16205172 -15.03154189 313.83276417 -16.86016846 314.5039978 C-19.38791555 315.43149239 -21.91646222 316.3567682 -24.4453125 317.28125 C-25.20042114 317.55854446 -25.95552979 317.83583893 -26.73352051 318.12153625 C-31.8850196 320 -31.8850196 320 -33 320 C-34.24954184 313.20499016 -34.15932834 306.45237665 -34.17358398 299.56005859 C-34.1798983 298.20082389 -34.18666506 296.84159123 -34.19384766 295.48236084 C-34.20846084 292.56484787 -34.22020866 289.64734257 -34.22979546 286.72980881 C-34.24533191 282.10496101 -34.26928287 277.48017991 -34.29469299 272.8553772 C-34.3656664 259.70717604 -34.42552671 246.55893677 -34.47680664 233.41064453 C-34.50523181 226.14140809 -34.54067812 218.87223822 -34.58346039 211.60307181 C-34.61003138 207.01796075 -34.6280595 202.43292483 -34.63949764 197.84775233 C-34.64871212 194.97796968 -34.66611422 192.10827728 -34.68567657 189.23854828 C-34.69654924 187.30048637 -34.69789431 185.36237808 -34.69880676 183.42428589 C-34.87664578 161.72608283 -40.50930041 143.44791218 -55.1875 127.25 C-63.92546292 119.13761872 -74.69206828 113.5180232 -86 110 C-86.76957031 109.75507813 -87.53914063 109.51015625 -88.33203125 109.2578125 C-108.2040566 104.17669919 -128.85129039 108.98600716 -146.24902344 118.94433594 C-160.06898513 127.27639316 -169.50940768 140.38195837 -173.79786682 155.88418579 C-176.04104637 165.40607375 -176.37927204 174.27614235 -176.2578125 184.0078125 C-176.24963436 185.62465744 -176.24298662 187.24151074 -176.23776245 188.85836792 C-176.22079215 193.09238501 -176.18670094 197.32607153 -176.14770508 201.55993652 C-176.08110379 209.08409133 -176.0441796 216.6084618 -176.0078125 224.1328125 C-176.0033033 224.9400602 -175.9987941 225.74730789 -175.99414825 226.57901764 C-175.9169121 241.40775373 -176.28880949 256.18626962 -177 271 C-198.40325989 245.21197499 -206.4715887 207.36408975 -203.53759766 174.60498047 C-200.92358418 150.16026878 -190.53316823 124.36442214 -171.70703125 108.0078125 C-162.82926392 101.057714 -153.11663622 95.22812485 -143.60546875 89.19921875 C-137.37029259 85.2456728 -131.17830232 81.22919567 -125 77.1875 C-123.09244892 75.94140471 -121.18489686 74.69531092 -119.27734375 73.44921875 C-116.76445424 71.80685148 -114.25158846 70.16444791 -111.73876953 68.52197266 C-98.93948962 60.16585865 -85.9819351 52.06869986 -73 44 C-72.09169434 43.43490723 -71.18338867 42.86981445 -70.24755859 42.28759766 C-50.06118987 29.73407137 -29.7959599 17.30545578 -9.26171875 5.32714844 C-7.79827486 4.46841776 -6.3419372 3.59740963 -4.89453125 2.71191406 C-3.29695038 1.74924807 -1.65251021 0.86498581 0 0 Z " fill="#FDFDFE" transform="translate(466,221)"/>
<path d="M0 0 C1.95236778 -0.00807831 1.95236778 -0.00807831 3.94417733 -0.01631981 C7.54622999 -0.03075644 11.1480535 -0.02653534 14.75011861 -0.019153 C18.63913384 -0.01441911 22.52809965 -0.02693322 26.417099 -0.03717041 C34.0322634 -0.05436022 41.64734528 -0.05519794 49.26252405 -0.04995751 C55.45364176 -0.04591443 61.64473511 -0.04736101 67.83585167 -0.05270576 C69.15810853 -0.0538284 69.15810853 -0.0538284 70.50707766 -0.05497371 C72.29793262 -0.05650521 74.08878757 -0.05804356 75.87964251 -0.05958868 C92.67187189 -0.07331471 109.46405469 -0.0678756 126.25628301 -0.05640347 C141.61036231 -0.04647394 156.96432106 -0.05940671 172.31838176 -0.08333766 C188.09137729 -0.10773591 203.86431669 -0.11733456 219.63733071 -0.11068493 C228.48965376 -0.10719394 237.34188412 -0.10941666 246.19419289 -0.12693596 C253.73110826 -0.14166714 261.26786571 -0.14228158 268.80477802 -0.12486505 C272.64809514 -0.11635962 276.49113027 -0.114194 280.3344326 -0.1295166 C284.5062234 -0.14594246 288.67733548 -0.13120054 292.84912109 -0.11352539 C294.05643035 -0.1231304 295.2637396 -0.1327354 296.50763398 -0.14263147 C305.0623198 -0.06812099 313.1038846 1.08583554 319.42753601 7.32518005 C326.64386091 16.9401707 328.6470275 29.87490295 331.11503601 41.38768005 C327.30132153 42.27784938 323.77437377 42.51208496 319.86192608 42.51072788 C318.59446503 42.51271893 317.32700399 42.51470998 316.02113503 42.51676136 C314.61702563 42.51390849 313.21291641 42.5109629 311.80880737 42.50793457 C310.31543898 42.50837064 308.82207066 42.50924621 307.32870275 42.51052374 C303.22402158 42.51276165 299.11936646 42.50875699 295.01468861 42.50374568 C290.58869561 42.4994313 286.16270411 42.5008883 281.73670959 42.50164795 C274.06802204 42.50217256 266.39934299 42.49903234 258.73065758 42.49341011 C247.64299564 42.48528658 236.55533781 42.48267901 225.46767322 42.48142212 C207.47911278 42.47923295 189.49055688 42.4725765 171.5019989 42.46311951 C154.02673872 42.45394192 136.55147976 42.44686278 119.07621765 42.44261169 C117.99922587 42.44234897 116.92223408 42.44208625 115.81260618 42.44181556 C110.40970964 42.44051053 105.00681308 42.43924682 99.60391653 42.43800366 C54.77428655 42.42763524 9.94466151 42.41002057 -34.88496399 42.38768005 C-34.72773407 40.94323747 -34.5695831 39.49889512 -34.41104126 38.05459595 C-34.32306935 37.25026721 -34.23509745 36.44593847 -34.14445972 35.61723614 C-33.67666305 31.59798347 -32.88258479 27.66182962 -32.07246399 23.70018005 C-31.91971008 22.88484802 -31.76695618 22.06951599 -31.60957336 21.22947693 C-29.97404669 13.23285046 -26.56271906 8.23232589 -19.88496399 3.38768005 C-13.39037036 -0.24864713 -7.32631248 -0.0362697 0 0 Z " fill="#FEFEFE" transform="translate(327.8849639892578,681.6123199462891)"/>
<path d="M0 0 C21.80340617 10.8621383 40.26366081 28.91687943 52.375 50 C52.71096191 50.5760498 53.04692383 51.15209961 53.39306641 51.74560547 C64.80439957 71.69179239 72.29387152 96.03421026 73.375 119 C73.42785156 120.03769531 73.48070312 121.07539063 73.53515625 122.14453125 C73.85256458 133.77823665 71.74905344 146.49592046 63.96484375 155.66015625 C59.63579892 159.61978926 54.92212833 160.6943446 49.25 161.375 C27.65514989 159.2851758 9.55021097 143.99029301 -4.078125 128.1484375 C-19.64719767 108.80949503 -30.00409171 86.09583167 -35.625 62 C-35.87056641 60.98486328 -35.87056641 60.98486328 -36.12109375 59.94921875 C-38.25859486 50.85159005 -38.89365612 41.96446426 -38.9375 32.625 C-38.94305908 31.63870605 -38.94861816 30.65241211 -38.9543457 29.63623047 C-38.86081361 20.10874819 -38.16217168 10.07663317 -32.625 2 C-23.03568048 -7.34343954 -11.10961374 -5.29429729 0 0 Z " fill="#FEFEFE" transform="translate(557.625,251)"/>
<path d="M0 0 C5.22169789 4.13889014 10.04438466 8.67366915 14.86328125 13.26953125 C15.60707031 13.96046875 16.35085938 14.65140625 17.1171875 15.36328125 C22.4707198 20.47585221 26.69906824 26.16517354 30.86328125 32.26953125 C31.94609375 33.82800781 31.94609375 33.82800781 33.05078125 35.41796875 C53.06541236 64.86819351 67.42652284 107.21566765 60.78393555 143.0871582 C58.25647948 155.15738929 53.64395985 168.4152586 43.43359375 176.09765625 C42.62664062 176.566875 41.8196875 177.03609375 40.98828125 177.51953125 C40.18648437 177.9990625 39.3846875 178.47859375 38.55859375 178.97265625 C27.97728195 184.0639541 14.11314493 183.71769316 2.94921875 180.4296875 C-32.46828639 167.11449886 -56.41996432 135.70092335 -72.01269531 102.42944336 C-84.87154743 74.06212364 -92.74739239 36.76651532 -83.33203125 6.34765625 C-78.55744156 -5.94769235 -72.30115993 -12.20137017 -60.22265625 -17.56640625 C-39.05687142 -25.55046179 -16.61469907 -12.29064726 0 0 Z M-63.01171875 6.64453125 C-72.92336007 22.31024623 -69.06517369 47.95604718 -65.39453125 65.08984375 C-58.98952556 92.46591404 -46.27787527 117.66034235 -27.13671875 138.26953125 C-26.46253906 139.02492188 -25.78835938 139.7803125 -25.09375 140.55859375 C-13.71869405 152.73402677 2.57737069 163.08328924 19.36328125 164.58203125 C26.00084858 163.98939131 30.92476477 161.77622197 35.86328125 157.26953125 C46.50148859 140.89197503 45.16608034 121.38773672 41.390625 102.96289062 C34.69239636 73.31702685 22.39511971 46.91713228 0.86328125 25.26953125 C0.36924805 24.77146973 -0.12478516 24.2734082 -0.63378906 23.76025391 C-7.7412628 16.69265709 -15.30242157 11.07538892 -24.13671875 6.26953125 C-24.73919434 5.93373047 -25.34166992 5.59792969 -25.96240234 5.25195312 C-37.84107264 -1.27404035 -53.37426406 -5.91758454 -63.01171875 6.64453125 Z " fill="#161516" transform="translate(587.13671875,247.73046875)"/>
<path d="M0 0 C-1.02876169 26.35758405 -5.73933052 52.55042583 -25.5625 71.5625 C-45.45141068 88.72567141 -69.66560128 91.45465521 -95 91 C-91.88059308 87.82538234 -88.68933142 84.83431902 -85.3125 81.9375 C-74.0494396 71.7590306 -66.84146867 60.37505504 -60 47 C-59.49597656 46.02160156 -58.99195313 45.04320312 -58.47265625 44.03515625 C-56.4906004 39.92539827 -54.93131878 35.85927437 -53.6875 31.47265625 C-53.44870117 30.66441406 -53.20990234 29.85617187 -52.96386719 29.0234375 C-52.49930725 27.42194496 -52.06583814 25.81099582 -51.66894531 24.19140625 C-50.06024442 18.65112694 -50.06024442 18.65112694 -47.14614868 16.86149597 C-46.41423309 16.5671315 -45.6823175 16.27276703 -44.92822266 15.96948242 C-44.12122925 15.63851059 -43.31423584 15.30753876 -42.48278809 14.96653748 C-41.66346802 14.64758011 -40.84414795 14.32862274 -40 14 C-39.26994751 13.7077504 -38.53989502 13.41550079 -37.78771973 13.11439514 C-35.57620648 12.23970544 -33.35662737 11.3897709 -31.1328125 10.546875 C-30.33140839 10.24179016 -29.53000427 9.93670532 -28.70431519 9.62237549 C-27.02929898 8.98583704 -25.35376639 8.35065585 -23.67773438 7.71679688 C-21.10855313 6.74377108 -18.5425444 5.76267698 -15.9765625 4.78125 C-14.34133243 4.16096618 -12.70592216 3.54115718 -11.0703125 2.921875 C-10.30470001 2.62819031 -9.53908752 2.33450562 -8.75027466 2.03192139 C-5.70067224 0.88587623 -3.28625061 0 0 0 Z " fill="#FDFDFD" transform="translate(590,505)"/>
<path d="M0 0 C5.53846154 3.07692308 5.53846154 3.07692308 7 6 C7.7008527 13.12533583 7.7008527 13.12533583 5.046875 16.4375 C1.24028622 19.63893877 -2.73940879 21.8700792 -7.125 24.1875 C-8.05932861 24.68942871 -8.99365723 25.19135742 -9.95629883 25.70849609 C-22.1529079 32.21839619 -34.47980385 38.48421162 -46.78515625 44.78515625 C-53.08318659 48.01026425 -59.36665524 51.26086412 -65.625 54.5625 C-66.34284668 54.93955078 -67.06069336 55.31660156 -67.80029297 55.70507812 C-71.4553535 57.63103681 -75.0856333 59.59488375 -78.69921875 61.59765625 C-79.47378418 62.02167725 -80.24834961 62.44569824 -81.04638672 62.88256836 C-82.50315686 63.68126511 -83.95454672 64.4898983 -85.39892578 65.31079102 C-89.44597036 67.51941303 -92.39101684 68.56126586 -97 68 C-100.3125 66.5625 -100.3125 66.5625 -103 64 C-104.36259426 59.94249709 -104.59483228 56.56955746 -103.0703125 52.546875 C-99.98001546 48.74522657 -96.11354228 46.92909075 -91.8125 44.6875 C-90.90757812 44.20313477 -90.00265625 43.71876953 -89.0703125 43.21972656 C-83.30600621 40.15261154 -77.48562746 37.20546793 -71.62402344 34.32958984 C-64.24022459 30.68089158 -57.00872573 26.74639438 -49.75875854 22.84082031 C-39.85564167 17.50735687 -29.90601828 12.2752563 -19.90649414 7.12426758 C-18.93832764 6.62435303 -17.97016113 6.12443848 -16.97265625 5.609375 C-16.12968994 5.17592773 -15.28672363 4.74248047 -14.41821289 4.29589844 C-12.7117058 3.38139671 -11.04208572 2.396405 -9.40405273 1.36425781 C-6.03988795 -0.54484677 -3.81352819 -0.46832802 0 0 Z " fill="#161516" transform="translate(789,209)"/>
<path d="M0 0 C1.08457993 -0.05259224 1.08457993 -0.05259224 2.19107056 -0.10624695 C6.10432515 -0.14476683 7.65061978 0.31372114 10.734375 2.80981445 C13.42684798 6.23779068 13.51965284 8.06242223 13.28125 12.26953125 C12.477819 15.7893242 10.63919997 17.352954 7.7890625 19.42578125 C5.12826343 20.25774914 2.56001022 20.6051266 -0.2134552 20.81178284 C-0.99976822 20.87205658 -1.78608124 20.93233032 -2.59622192 20.99443054 C-3.44981293 21.05629044 -4.30340393 21.11815033 -5.18286133 21.18188477 C-6.08903702 21.25030579 -6.99521271 21.31872681 -7.92884827 21.38922119 C-10.92497414 21.61450536 -13.92144825 21.83471929 -16.91796875 22.0546875 C-19.0030028 22.20996969 -21.08801947 22.36548548 -23.17301941 22.52122498 C-27.54495411 22.84701369 -31.9170601 23.17036742 -36.28930664 23.49194336 C-41.88486457 23.90363084 -47.48000489 24.32070377 -53.07503223 24.73953342 C-57.38235693 25.06147479 -61.68986829 25.38085843 -65.99744225 25.69944572 C-68.05990565 25.85223246 -70.12231613 26.00573553 -72.1846714 26.15997505 C-75.0732098 26.37555311 -77.96197682 26.58776088 -80.85083008 26.79907227 C-82.12210754 26.89489845 -82.12210754 26.89489845 -83.41906738 26.99266052 C-96.43258191 27.93340446 -96.43258191 27.93340446 -100.0859375 25.55078125 C-102.91211391 22.72460484 -103.43203632 21.01506019 -103.6484375 17.11328125 C-103.70902344 16.35402344 -103.76960937 15.59476562 -103.83203125 14.8125 C-103.07386777 11.89905416 -101.86427833 10.28016153 -99.45874023 8.47241211 C-94.11843126 5.98583618 -87.82985637 6.20011338 -82.0234375 5.86328125 C-80.46224467 5.75642974 -78.901211 5.64723113 -77.34033203 5.53588867 C-74.79574786 5.35562601 -72.25112947 5.17823198 -69.70574951 5.00953674 C-62.50426132 4.53214243 -55.31323771 3.95636782 -48.12109375 3.35546875 C-44.72711554 3.07511436 -41.33308874 2.79535376 -37.9390564 2.51565552 C-35.7306189 2.33297075 -33.52230177 2.14882398 -31.31411743 1.96310425 C-20.8919795 1.09268503 -10.45796603 0.26128361 0 0 Z " fill="#161516" transform="translate(814.2109375,300.57421875)"/>
<path d="M0 0 C2.82275936 1.25455972 4.46288541 2.28384722 6.3125 4.75 C7.3222811 8.05473814 7.33974011 10.54537948 7 14 C5.31953942 16.50877271 3.78996303 18.4578128 1.75 20.625 C1.21004395 21.22546143 0.67008789 21.82592285 0.11376953 22.44458008 C-1.57396277 24.31263402 -3.28470381 26.15726212 -5 28 C-6.04003147 29.13583227 -7.07912621 30.27252311 -8.1171875 31.41015625 C-10.57966422 34.09905848 -13.06023862 36.77049567 -15.54638672 39.4375 C-17.93916915 42.00952008 -20.31656666 44.59534279 -22.6875 47.1875 C-23.49574219 48.06792969 -24.30398438 48.94835937 -25.13671875 49.85546875 C-27.03267943 51.85782466 -27.03267943 51.85782466 -28 54 C-28.66 54 -29.32 54 -30 54 C-30.27239502 54.59458008 -30.54479004 55.18916016 -30.82543945 55.80175781 C-31.97029488 57.94440556 -33.12644698 59.42006637 -34.79296875 61.171875 C-35.60967041 62.0388501 -35.60967041 62.0388501 -36.44287109 62.92333984 C-37.01859863 63.5261377 -37.59432617 64.12893555 -38.1875 64.75 C-39.37191326 66.00704084 -40.55551407 67.26484772 -41.73828125 68.5234375 C-42.30498535 69.12510742 -42.87168945 69.72677734 -43.45556641 70.34667969 C-47.05637404 74.20135394 -50.47310187 78.21600609 -53.90234375 82.22265625 C-54.53269531 82.95355469 -55.16304687 83.68445313 -55.8125 84.4375 C-56.37582031 85.09621094 -56.93914063 85.75492187 -57.51953125 86.43359375 C-59.93783277 88.99227161 -61.90264426 89.2259979 -65.3125 89.375 C-68.9416224 89.32240402 -69.87436105 89.08637678 -73 86.9375 C-75.48188972 83.29222447 -76.22525651 81.43004479 -76 77 C-72.95216573 70.64676801 -66.76165178 65.44910006 -61.96582031 60.36083984 C-57.74026926 55.8641111 -53.84293848 51.20678818 -49.984375 46.390625 C-47.69744901 43.63550944 -45.24200143 41.15166193 -42.671875 38.6640625 C-40.27122932 36.27463479 -38.08379205 33.71884045 -35.87109375 31.15625 C-30.6268585 25.11278892 -25.20507675 19.22328233 -19.8125 13.3125 C-16.98372351 10.21096435 -14.20084502 7.08841415 -11.5 3.875 C-7.76269953 -0.42289554 -5.61798892 -0.3808806 0 0 Z " fill="#161516" transform="translate(728,134)"/>
<path d="M0 0 C-2.18136509 13.30632707 -10.16238483 23.4104511 -18 34 C-18.55300781 34.79535156 -19.10601562 35.59070313 -19.67578125 36.41015625 C-20.11277344 36.93480469 -20.54976563 37.45945312 -21 38 C-21.66 38 -22.32 38 -23 38 C-23.23976563 38.57234375 -23.47953125 39.1446875 -23.7265625 39.734375 C-28.13600673 47.57939848 -38.92421374 55.37903219 -47 59 C-54.35173228 57.32661633 -61.01882245 50.36434506 -66 45 C-66.639375 44.33097656 -67.27875 43.66195312 -67.9375 42.97265625 C-72.32856221 38.25065002 -75.4199874 33.91252886 -78 28 C-70.94214923 25.11811151 -63.82730074 22.44681197 -56.6484375 19.8828125 C-55.59073151 19.50317352 -54.53302551 19.12353455 -53.44326782 18.73239136 C-50.08779024 17.52821348 -46.73147258 16.32640139 -43.375 15.125 C-38.96563601 13.54568916 -34.55679713 11.96492462 -30.1484375 10.3828125 C-28.56503571 9.8152121 -28.56503571 9.8152121 -26.949646 9.23614502 C-20.12977806 6.78515672 -13.33130947 4.28412949 -6.57260132 1.66873169 C-2.21148369 0 -2.21148369 0 0 0 Z " fill="#FCFCFC" transform="translate(519,531)"/>
<path d="M0 0 C0.80703369 -0.00350464 1.61406738 -0.00700928 2.44555664 -0.01062012 C5.11255509 -0.01941917 7.77928792 -0.01359252 10.44628906 -0.00683594 C12.30470836 -0.00818364 14.16312732 -0.01012505 16.02154541 -0.01263428 C19.91869459 -0.01558351 23.8157521 -0.01129629 27.71289062 -0.00195312 C32.69379909 0.00940955 37.67449126 0.00290091 42.65539169 -0.00909805 C46.49539803 -0.01634919 50.33535371 -0.01401326 54.17536163 -0.00884247 C56.01086706 -0.00751331 57.84637717 -0.00912783 59.68187714 -0.01380157 C62.25679058 -0.01891682 64.83136183 -0.01108547 67.40625 0 C68.15666565 -0.00404846 68.9070813 -0.00809692 69.68023682 -0.01226807 C75.69465493 0.03537089 81.82955707 0.33966776 86.46191406 4.50878906 C88.28385452 7.84901324 88.66440505 9.51217044 87.96191406 13.25878906 C85.78927906 15.8316463 83.98197568 17.74875825 80.96191406 19.25878906 C78.15111679 19.37816779 75.36434816 19.43716763 72.55249023 19.45166016 C71.68240829 19.45983765 70.81232635 19.46801514 69.9158783 19.47644043 C67.02888685 19.50130693 64.1419446 19.51781323 61.25488281 19.53222656 C60.2700271 19.53755024 59.28517139 19.54287392 58.27047157 19.54835892 C53.0581706 19.57509536 47.84589363 19.59446909 42.63354492 19.60888672 C37.24627425 19.62554011 31.85961468 19.67032238 26.47257519 19.72125816 C22.33331081 19.75489184 18.19419221 19.76645988 14.05480385 19.7721138 C12.06884399 19.7788365 10.08289406 19.79408493 8.09706688 19.81800461 C5.31737642 19.8495773 2.53934372 19.84970497 -0.24047852 19.84228516 C-1.47115051 19.86689316 -1.47115051 19.86689316 -2.72668457 19.89199829 C-6.95493801 19.8457949 -8.57075568 19.62136453 -12.0254364 16.94107056 C-14.54903141 13.57784607 -15.03808594 11.44936628 -15.03808594 7.25878906 C-13.86316547 4.47608268 -12.91025168 2.86546852 -10.42718506 1.13824463 C-6.98282374 -0.1296654 -3.62164624 -0.01933006 0 0 Z " fill="#191818" transform="translate(327.0380859375,812.7412109375)"/>
<path d="M0 0 C0.9818502 -0.00284752 0.9818502 -0.00284752 1.98353577 -0.00575256 C4.14254861 -0.00944793 6.30122216 0.00124136 8.46020508 0.01245117 C9.97935446 0.01364572 11.49850459 0.01409555 13.01765442 0.01383972 C16.20778005 0.01540343 19.39779331 0.0236731 22.58789062 0.03710938 C26.62331133 0.05391315 30.65860805 0.05781501 34.69405937 0.05732918 C80.74011135 0.05817882 80.74011135 0.05817882 86.29223633 4.24291992 C88.29223633 7.24291992 88.29223633 7.24291992 88.22973633 10.68041992 C87.07667091 15.06206851 86.13594569 15.9248538 82.29223633 18.24291992 C79.30509239 18.81429292 76.37697487 18.78988499 73.34277344 18.76049805 C72.45113998 18.76750732 71.55950653 18.7745166 70.64085388 18.78173828 C67.70011045 18.79931194 64.76033292 18.78769871 61.81958008 18.77416992 C59.77364416 18.77686478 57.72770949 18.78074714 55.68177795 18.7857666 C51.39710274 18.7916606 47.11276138 18.78310082 42.828125 18.7644043 C37.3343576 18.74160056 31.84137124 18.75474769 26.34763241 18.77869415 C22.12429408 18.79314238 17.90114121 18.78855084 13.67779732 18.77818298 C11.65198232 18.77551375 9.62615051 18.77879233 7.60035515 18.7881012 C4.77055055 18.7982522 1.94201469 18.78278667 -0.88769531 18.76049805 C-1.72572693 18.76859497 -2.56375854 18.77669189 -3.42718506 18.78503418 C-7.05734609 18.73202151 -9.24331335 18.58812098 -12.20042419 16.39025879 C-14.18845923 13.55812644 -14.63851501 11.70535314 -14.70776367 8.24291992 C-13.51465544 4.79616279 -12.79272619 2.81389138 -9.5098114 1.08622742 C-6.21474428 0.09454024 -3.44211171 -0.00416338 0 0 Z " fill="#141414" transform="translate(326.707763671875,770.757080078125)"/>
<path d="M0 0 C0.66 0 1.32 0 2 0 C2.97299156 4.85729645 3.12038805 9.4500625 3.0625 14.375 C3.05798828 15.11105469 3.05347656 15.84710938 3.04882812 16.60546875 C3.03715142 18.40368158 3.01922011 20.20185197 3 22 C2.01 22 1.02 22 0 22 C0 14.74 0 7.48 0 0 Z " fill="#1F1E1F" transform="translate(646,362)"/>
<path d="M0 0 C0.99 0 1.98 0 3 0 C3.08204081 4.18408142 2.9171921 7.92359066 2 12 C1.65596692 14.33177975 1.32050798 16.66487041 1 19 C-1.55698285 15.21332311 -1.03499684 11.5877666 -0.625 7.25 C-0.56828125 6.55261719 -0.5115625 5.85523438 -0.453125 5.13671875 C-0.31232128 3.42360688 -0.15754028 1.71165389 0 0 Z " fill="#252525" transform="translate(672,393)"/>
<path d="M0 0 C2.32758311 0.93103324 3.74357132 1.65382128 5.25 3.6875 C6.27095909 6.83545718 6.12632947 9.71543368 6 13 C5.01 13 4.02 13 3 13 C3 9.7 3 6.4 3 3 C2.01 3.33 1.02 3.66 0 4 C0 2.68 0 1.36 0 0 Z " fill="#1D1D1D" transform="translate(729,135)"/>
<path d="M0 0 C0.33 0 0.66 0 1 0 C1.33 6.27 1.66 12.54 2 19 C2.33 19 2.66 19 3 19 C3 20.98 3 22.96 3 25 C2.34 25 1.68 25 1 25 C-0.27861615 22.44276771 -0.11336609 20.63262898 -0.09765625 17.7734375 C-0.09443359 16.7421875 -0.09121094 15.7109375 -0.08789062 14.6484375 C-0.07951172 13.56820313 -0.07113281 12.48796875 -0.0625 11.375 C-0.05798828 10.28703125 -0.05347656 9.1990625 -0.04882812 8.078125 C-0.03701776 5.38536211 -0.02054778 2.69270812 0 0 Z " fill="#1D1D1D" transform="translate(470,263)"/>
<path d="M0 0 C2.68222079 5.36444157 1.57185159 9.3862443 0 15 C-0.99 15 -1.98 15 -3 15 C-2.01 10.05 -1.02 5.1 0 0 Z " fill="#222222" transform="translate(254,804)"/>
<path d="M0 0 C0.33 0 0.66 0 1 0 C0.67 4.95 0.34 9.9 0 15 C-0.99 15 -1.98 15 -3 15 C-3 13.68 -3 12.36 -3 11 C-2.34 11 -1.68 11 -1 11 C-1.33 8.36 -1.66 5.72 -2 3 C-1.34 3 -0.68 3 0 3 C0 2.01 0 1.02 0 0 Z " fill="#1D1D1E" transform="translate(606,518)"/>
<path d="M0 0 C0.99 0.33 1.98 0.66 3 1 C2.34 1 1.68 1 1 1 C0.67 1.99 0.34 2.98 0 4 C-5.94 4 -11.88 4 -18 4 C-18 3.67 -18 3.34 -18 3 C-16.86820313 2.86722656 -15.73640625 2.73445313 -14.5703125 2.59765625 C-13.08851821 2.4194658 -11.60674864 2.24106971 -10.125 2.0625 C-9.00544922 1.93198242 -9.00544922 1.93198242 -7.86328125 1.79882812 C-3.8046769 1.36673937 -3.8046769 1.36673937 0 0 Z " fill="#1E1D1E" transform="translate(621,425)"/>
<path d="M0 0 C2.02558881 3.34939881 2.21738987 5.86962551 2.125 9.75 C2.10695312 10.73484375 2.08890625 11.7196875 2.0703125 12.734375 C2.04710937 13.48203125 2.02390625 14.2296875 2 15 C1.67 15 1.34 15 1 15 C1 13.35 1 11.7 1 10 C0.34 10 -0.32 10 -1 10 C-1.125 3.375 -1.125 3.375 0 0 Z " fill="#1C1C1D" transform="translate(245,393)"/>
<path d="M0 0 C0.99 0.495 0.99 0.495 2 1 C4.0374763 1.22858114 6.08040303 1.41024278 8.125 1.5625 C9.76855469 1.68818359 9.76855469 1.68818359 11.4453125 1.81640625 C12.28835938 1.87699219 13.13140625 1.93757813 14 2 C11.70457142 4.63730092 11.25831771 4.97181989 7.5625 5.375 C3.92982743 4.99261341 2.49850656 4.59844682 0 2 C0 1.34 0 0.68 0 0 Z " fill="#252525" transform="translate(713,323)"/>
<path d="M0 0 C0.66 0.66 1.32 1.32 2 2 C-1.3 4.97 -4.6 7.94 -8 11 C-8 8 -8 8 -6.25 5.95703125 C-5.5075 5.24933594 -4.765 4.54164063 -4 3.8125 C-2.88625 2.73935547 -2.88625 2.73935547 -1.75 1.64453125 C-1.1725 1.10183594 -0.595 0.55914063 0 0 Z " fill="#0C0C0C" transform="translate(294,671)"/>
<path d="M0 0 C3.1611016 3.1611016 3.38812741 3.5561582 3.6875 7.6875 C3.75324219 8.49574219 3.81898438 9.30398438 3.88671875 10.13671875 C3.92410156 10.75160156 3.96148437 11.36648438 4 12 C3.01 12 2.02 12 1 12 C0.67 8.04 0.34 4.08 0 0 Z " fill="#201F1F" transform="translate(290,537)"/>
<path d="M0 0 C1.98 0 3.96 0 6 0 C6.33 0.99 6.66 1.98 7 3 C3.7 3 0.4 3 -3 3 C-2.01 2.67 -1.02 2.34 0 2 C0 1.34 0 0.68 0 0 Z " fill="#1D1D1D" transform="translate(538,244)"/>
<path d="M0 0 C2.64 0.33 5.28 0.66 8 1 C8 1.33 8 1.66 8 2 C4.32612505 2.85298376 0.9552607 3.10789471 -2.8125 3.0625 C-4.27623047 3.04896484 -4.27623047 3.04896484 -5.76953125 3.03515625 C-6.87361328 3.01775391 -6.87361328 3.01775391 -8 3 C-8 2.67 -8 2.34 -8 2 C-5.36 2 -2.72 2 0 2 C0 1.34 0 0.68 0 0 Z " fill="#272727" transform="translate(537,180)"/>
<path d="M0 0 C1.2684375 0.433125 1.2684375 0.433125 2.5625 0.875 C6.02361041 2.00772704 9.49372557 3.01824316 13 4 C11.296875 5.1484375 11.296875 5.1484375 9 6 C6.640625 5.1015625 6.640625 5.1015625 4.25 3.625 C3.45078125 3.14289063 2.6515625 2.66078125 1.828125 2.1640625 C1.22484375 1.77992188 0.6215625 1.39578125 0 1 C0 0.67 0 0.34 0 0 Z " fill="#202020" transform="translate(561,464)"/>
<path d="M0 0 C1.45792884 -0.05399736 2.91642712 -0.09279177 4.375 -0.125 C5.18710937 -0.14820313 5.99921875 -0.17140625 6.8359375 -0.1953125 C9 0 9 0 11 2 C8.20129973 3.39935013 6.09501208 3.25265405 3 3 C1.30859375 1.484375 1.30859375 1.484375 0 0 Z " fill="#1F1E1F" transform="translate(527,196)"/>
<path d="M0 0 C3.82097239 0.53069061 6.06171403 1.49701566 9 4 C7.3125 4.8125 7.3125 4.8125 5 5 C2.25 2.5625 2.25 2.5625 0 0 Z " fill="#1E1E1E" transform="translate(571,190)"/>
<path d="M0 0 C0.33 0 0.66 0 1 0 C1.33 3.3 1.66 6.6 2 10 C1.01 9.67 0.02 9.34 -1 9 C-0.67 6.03 -0.34 3.06 0 0 Z " fill="#1E1E1E" transform="translate(519,296)"/>
</svg>
